<svg xmlns="http://www.w3.org/2000/svg" version="1.1" viewBox="0 0 16 16" xml:space="preserve"><path fill="#e6dfdf" fill-opacity=".946" stroke-width="1.22" d="m2.3394 2.9988c-0.1916 0-0.3457 0.15299-0.3457 0.3418v10.32c0 0.18881 0.1541 0.34191 0.3457 0.3418l7.8725-0.0045 3.7957-3.8073-0.0042-6.8503c-1.15e-4 -0.18881-0.1541-0.3418-0.3457-0.3418z"/><path fill="none" stroke="#2c2c2c" stroke-opacity=".706" d="m2.3398 2.5c-0.46536 0-0.83984 0.37448-0.83984 0.83984v10.32c0 0.46536 0.37448 0.83984 0.83984 0.83984h8.0664l4.0938-4.0938v-7.0664c0-0.46536-0.37448-0.83984-0.83984-0.83984z"/><path fill="#2e4e72" fill-rule="evenodd" stroke="#2c2c2c" stroke-linecap="square" stroke-linejoin="bevel" stroke-opacity=".706" d="m5.5 11.5h2.5"/><path fill="#2e4e72" fill-rule="evenodd" stroke="#2c2c2c" stroke-linecap="square" stroke-linejoin="bevel" stroke-opacity=".706" d="m5.5 5.5h6m-6 3h6m1-5v-2m-3 2v-2m-3 2v-2m-3 2v-2"/><path fill="gray" fill-opacity=".424" d="m13.56 2.9352-11.057 0.055c-0.326-0.035-0.563 0.089-0.502 0.5v10.016c-0.064 0.594 0.39632 0.50812 0.5 0.5h0.499v-10.016h11v-0.5c0-0.178 0.04698-0.55-0.5-0.5z"/><path fill="#2e4e72" fill-rule="evenodd" stroke="#2c2c2c" stroke-linejoin="bevel" stroke-opacity=".706" d="m10 10.5h4"/><path fill="#2e4e72" fill-rule="evenodd" stroke="#2c2c2c" stroke-linejoin="bevel" stroke-opacity=".706" d="m10.5 11v3"/></svg>