<svg xmlns="http://www.w3.org/2000/svg" xmlns:svg="http://www.w3.org/2000/svg" id="svg30" width="24" height="24" version="1.1" xml:space="preserve"><g id="g14" transform="translate(0,-8)"><g id="g12" stroke="#6e97c4"><path id="path1" fill="#e6e6e6" d="m 2.5,15.5 h 19 v 14 h -19 z"/><path id="path2" fill="#bad9ec" d="m 2.5,10.5 h 19 v 5 h -19 z"/><path id="path3" fill="none" stroke-width="2" d="M 5,13 H 9"/><path id="path4" fill="none" stroke-width="2" d="m 11,13 h 8"/><path id="path5" fill="none" d="M 5,17.5 H 9"/><path id="path6" fill="none" d="m 11,17.5 h 8"/><path id="path7" fill="none" d="M 5,20.5 H 9"/><path id="path8" fill="none" d="m 11,20.5 h 8"/><path id="path9" fill="none" d="M 5,23.5 H 9"/><path id="path10" fill="none" d="m 11,23.5 h 8"/><path id="path11" fill="none" d="M 5,26.5 H 9"/><path id="path12" fill="none" d="m 11,26.5 h 8"/></g><path id="path13" fill="#e0ce7c" fill-rule="evenodd" stroke="#c4a000" stroke-linecap="round" d="m 6.5,9.5 h 5 v 21 h -5 z"/><path id="path14" fill="none" stroke="#fff" stroke-width="2" d="m 8,13 h 2"/></g><path id="path15" fill="#ff0" stroke-width=".025" d="m 7.49,23 c 0.829,-0.0037 2.19,-0.0037 3.02,0 0.829,0.0037 0.151,0.0068 -1.51,0.0068 -1.66,0 -2.34,-0.003 -1.51,-0.0068 z"/><path id="path16" fill="#ff0" stroke-width=".025" d="M 6.02,12 V 1 H 12 V 23 H 6.02 Z m 4.99,0 V 2 H 6.99 v 20 h 4.02 z" opacity=".716"/><path id="path17" stroke-width=".025" d="M 7.01,12 V 2 h 3.97 V 22 H 7.01 Z M 10,5 V 3.99 H 7.99 L 7.98333,4.97 c -0.00367,0.539 -0.00111,0.994 0.00568,1.01 0.00972,0.0253 0.225,0.0308 1.01,0.0255 l 1,-0.00666 z" opacity="0"/><path id="path18" fill="#ff0" stroke-width=".025" d="m 6.02,1.01 v 22 H 12 v -3.12 c -0.0252,-0.0787 -0.0519,-0.149 -0.0742,-0.246 -0.0484,-0.21 -0.0394,-0.428 -0.0508,-0.643 -0.0107,-0.201 -0.0235,-0.404 -0.0137,-0.605 0.0198,-0.406 0.0678,-0.614 0.139,-0.861 v -16.5 h -2.99 z m 0.967,0.992 h 4.02 v 20 h -4.02 v -10 z" opacity=".651"/><g id="g30" stroke-width=".051"><path id="path19" d="M 6.02,12 V 1 h 5.96 V 22.9 H 6.02 Z m 4.99,0 V 2 H 6.99 v 20 h 4.02 z" opacity="0"/><path id="path20" d="M 6.02,12 V 1 h 5.96 V 22.9 H 6.02 Z m 4.99,0 V 2 H 6.99 v 20 h 4.02 z" opacity="0"/><path id="path21" d="M 6.02,12 V 1 h 5.96 V 22.9 H 6.02 Z m 4.99,0 V 2 H 6.99 v 20 h 4.02 z" opacity="0"/><path id="path22" fill="#ffff0c" d="M 6.02,12 V 1 h 5.96 V 22.9 H 6.02 Z m 4.99,0 V 2 H 6.99 v 20 h 4.02 z" opacity=".268"/><path id="path23" fill="#fffffe" d="M 7.03,12 V 2 H 11 V 22 H 7.03 Z m 3,-7 V 3.98 H 7.99 v 2.04 h 2.04 z" opacity=".268"/><path id="path24" fill="#fffffe" d="M 7.03,12 V 2 H 11 V 22 H 7.03 Z M 10.01,5 V 4.007 L 9,3.9932 7.99,3.9794 v 2.04 L 9,6.0056 10.01,5.9918 Z" opacity=".268"/><path id="path25" fill="#fffffe" d="M 6.01,12 V 1 l 2.99,3e-7 2.99,3e-7 V 22.900001 H 9 L 6.01,22.9 Z M 11,12 V 2 H 6.98 V 22 H 11 Z" opacity=".268"/><path id="path26" fill="#fffffe" d="M 6.01,12 V 1 h 5.96 V 22.9 H 6.01 Z M 11,12 V 2 H 6.98 V 22 H 11 Z" opacity=".268"/><path id="path27" fill="#fffffe" d="M 6.01,12 V 1 h 5.96 V 22.9 H 6.01 Z M 11,12 V 2 H 6.98 V 22 H 11 Z" opacity=".268"/><path id="path28" fill="#ffff40" d="M 6.01,12 V 1 h 5.96 V 22.9 H 6.01 Z M 11,12 V 2 H 6.98 V 22 H 11 Z" opacity=".268"/><path id="path29" fill="#ffff40" d="M 6.01,12 V 1 h 5.96 V 22.9 H 6.01 Z M 11,12 V 2 H 6.98 V 22 H 11 Z" opacity=".268"/><path id="path30" fill="#ffff3b" d="M 6.01,12 V 1 h 5.96 V 22.9 H 6.01 Z M 11,12 V 2 H 6.98 V 22 H 11 Z" opacity=".268"/></g><g id="g4" transform="matrix(0.74888337,0,0,0.74888337,5.5245658,-0.46649963)"><path id="path1-5" fill="#e6e6e6" stroke="#6e97c4" d="m 2.5,10.499998 h 19 v 19 h -19 z"/><g id="g3" fill-rule="evenodd"><path id="path2-3" fill="#46617e" stroke="#455e78" stroke-width="2" d="M 5,16 H 9"/><rect id="rect2" width="8" height="5" x="10.5" y="13.5" fill="#fafefe" stroke="#6e97c4" rx=".5"/><path id="path3-5" fill="#919699" stroke="#455e78" stroke-width="2" d="M 5,24.000001 H 9"/><rect id="rect3" width="8" height="5" x="10.5" y="21.5" fill="#fafefe" stroke="#6e97c4" rx=".5"/></g></g></svg>