<svg xmlns="http://www.w3.org/2000/svg" xmlns:svg="http://www.w3.org/2000/svg" id="Capa_1" x="0" y="0" version="1.1" viewBox="0 0 353.176 353.176" xml:space="preserve" style="enable-background:new 0 0 353.176 353.176"><metadata id="metadata57"/><g id="g20"><g id="g18"><g id="g16"><path id="path6" d="m 281.90157,77.256044 c 2.12,0.11 4.193,-0.644 5.747,-2.09 l 37.094,-37.094 c 2.597,-3.462 1.895,-8.375 -1.567,-10.971 -2.786,-2.09 -6.618,-2.09 -9.404,0 l -37.094,37.094 c -2.987,3.047 -2.987,7.924 0,10.971 1.392,1.366 3.273,2.118 5.224,2.09 z"/><path id="path8" d="m 346.42112,112.327 h -43.29114 c -3.58626,0 -6.49388,3.509 -6.49388,7.837 0,4.328 2.90762,7.837 6.49388,7.837 h 43.29114 c 3.58626,0 6.49388,-3.509 6.49388,-7.837 -8.3e-4,-4.329 -2.90762,-7.837 -6.49388,-7.837 z" style="stroke-width:.91028452"/><path id="path10" d="m 330.03253,197.08272 -37.094,-37.094 c -3.22,-2.529 -7.751,-2.529 -10.971,0 -3.052,3.224 -3.052,8.27 0,11.494 l 37.094,36.571 c 1.303,1.559 3.196,2.505 5.224,2.612 2.183,-0.086 4.246,-1.024 5.747,-2.612 3.03,-2.672 3.32,-7.294 0.648,-10.324 -0.202,-0.228 -0.418,-0.445 -0.648,-0.647 z"/><path id="path12" d="m 181.41809,73.049661 c 3.315,2.813 8.179,2.813 11.494,0 2.529,-3.22 2.529,-7.751 0,-10.971 l -37.094,-37.094 c -3.463,-2.597 -8.375,-1.895 -10.971,1.567 -2.09,2.786 -2.09,6.618 0,9.404 z"/><path id="path14" d="m 232.751,63.685235 c 4.328,0 7.837,-3.290313 7.837,-7.348585 V 7.3485849 C 240.588,3.2903132 237.079,0 232.751,0 c -4.328,0 -7.837,3.2903132 -7.837,7.3485849 V 56.337588 c 0,4.058271 3.509,7.347647 7.837,7.347647 z" style="stroke-width:.96833789"/><g id="g4588"><g id="g4597" transform="rotate(42.726697,172.50888,321.10701)"><g id="g4592" transform="translate(-1.1928715,11.1853)"><rect id="rect4567" width="57.142" height="71.957" x="52.91" y="91.803" ry="1.058" style="opacity:1;fill:#fff;fill-opacity:1;stroke:#000;stroke-width:9.60000038;stroke-linecap:butt;stroke-linejoin:miter;stroke-miterlimit:4;stroke-dasharray:none;stroke-dashoffset:0;stroke-opacity:1;paint-order:markers fill stroke"/><rect id="rect4567-9" width="36.958" height="227.999" x="62.07" y="182.883" ry="0" style="opacity:1;fill:#000;fill-opacity:1;stroke:#000;stroke-width:9.60000038;stroke-linecap:butt;stroke-linejoin:miter;stroke-miterlimit:4;stroke-dasharray:none;stroke-dashoffset:0;stroke-opacity:1;paint-order:markers fill stroke"/></g></g></g></g></g></g></svg>